<svg width="512" height="512" viewBox="0 0 512 512" fill="none" xmlns="http://www.w3.org/2000/svg">
<g clip-path="url(#clip0_12_6)">
<path d="M441 58.9001L453.1 71C462.5 80.4 462.5 95.6 453.1 104.9L424 134.1L377.9 88L407 58.9001C416.4 49.5001 431.6 49.5001 440.9 58.9001H441ZM209.8 256.2L344 121.9L390.1 168L255.8 302.2C252.9 305.1 249.3 307.2 245.4 308.3L186.9 325L203.6 266.5C204.7 262.6 206.8 259 209.7 256.1L209.8 256.2ZM373.1 25L175.8 222.2C167.1 230.9 160.8 241.6 157.5 253.3L128.9 353.3C126.5 361.7 128.8 370.7 135 376.9C141.2 383.1 150.2 385.4 158.6 383L258.6 354.4C270.4 351 281.1 344.7 289.7 336.1L487 138.9C515.1 110.8 515.1 65.2 487 37.1L474.9 25C446.8 -3.09995 401.2 -3.09995 373.1 25ZM88 64C39.4 64 0 103.4 0 152V424C0 472.6 39.4 512 88 512H360C408.6 512 448 472.6 448 424V312C448 298.7 437.3 288 424 288C410.7 288 400 298.7 400 312V424C400 446.1 382.1 464 360 464H88C65.9 464 48 446.1 48 424V152C48 129.9 65.9 112 88 112H200C213.3 112 224 101.3 224 88C224 74.7 213.3 64 200 64H88Z" fill="white"/>
</g>
<defs>
<clipPath id="clip0_12_6">
<rect width="512" height="512" fill="white"/>
</clipPath>
</defs>
</svg>
