<svg width="25" height="25" viewBox="0 0 25 25" fill="none" xmlns="http://www.w3.org/2000/svg">
<path d="M8.53035 2.20215C9.38484 0.830078 10.8887 0 12.5001 0C14.1114 0 15.6153 0.830078 16.4698 2.20215L18.3546 5.21484L19.6729 4.45312C20.0831 4.21387 20.5958 4.24805 20.9718 4.53613C21.3477 4.82422 21.5137 5.3125 21.3917 5.77148L20.2491 10.0391C20.0831 10.6641 19.4386 11.0352 18.8136 10.8691L14.546 9.72656C14.087 9.60449 13.7501 9.21875 13.6866 8.75C13.6231 8.28125 13.8526 7.81738 14.2628 7.58301L15.6495 6.78223L13.8184 3.85742C13.5352 3.40332 13.0372 3.125 12.5001 3.125C11.963 3.125 11.4649 3.40332 11.1817 3.85742L10.3272 5.22461C9.87801 5.94727 8.93074 6.17676 8.19832 5.7373C7.45125 5.28809 7.21199 4.31152 7.67586 3.56934L8.53035 2.20215ZM20.9718 12.2998C21.7042 11.8604 22.6514 12.0898 23.1007 12.8125L24.2921 14.7217C24.7511 15.459 24.9952 16.3037 25.005 17.1729C25.0196 19.7656 22.92 21.8799 20.3272 21.8799L15.6251 21.875V23.4375C15.6251 23.9111 15.3419 24.3408 14.9024 24.5215C14.463 24.7021 13.96 24.6045 13.6231 24.2676L10.4981 21.1426C10.0391 20.6836 10.0391 19.9414 10.4981 19.4873L13.6231 16.3623C13.96 16.0254 14.463 15.9277 14.9024 16.1084C15.3419 16.2891 15.6251 16.7188 15.6251 17.1924V18.7549H20.3223C21.1817 18.7549 21.88 18.0518 21.8751 17.1924C21.8751 16.9043 21.7921 16.6211 21.6407 16.377L20.4493 14.4678C19.9854 13.7256 20.2198 12.749 20.9718 12.2998ZM3.16902 10.7861L1.75789 9.9707C1.34773 9.73145 1.11824 9.27246 1.18172 8.80371C1.24519 8.33496 1.58211 7.94922 2.04109 7.82715L6.30867 6.68457C6.93367 6.51855 7.5782 6.88965 7.74422 7.51465L8.88679 11.7773C9.00887 12.2363 8.84285 12.7197 8.46687 13.0127C8.0909 13.3057 7.5782 13.335 7.16804 13.0957L5.8741 12.3486L3.35945 16.3721C3.20808 16.6162 3.12508 16.8994 3.12508 17.1875C3.12019 18.0469 3.81844 18.75 4.67781 18.75H6.25008C7.11433 18.75 7.81258 19.4482 7.81258 20.3125C7.81258 21.1768 7.11433 21.875 6.25008 21.875H4.67781C2.08504 21.875 -0.0145723 19.7656 7.61853e-05 17.168C0.004959 16.2988 0.2491 15.4541 0.712967 14.7168L3.16902 10.7861Z" fill="white"/>
</svg>
