<svg width="20" height="23" viewBox="0 0 20 23" fill="none" xmlns="http://www.w3.org/2000/svg">
<path d="M20 3.57143V5.71429C20 7.6875 15.5223 9.28571 10 9.28571C4.47768 9.28571 0 7.6875 0 5.71429V3.57143C0 1.59821 4.47768 0 10 0C15.5223 0 20 1.59821 20 3.57143ZM17.5536 9.58482C18.4821 9.25446 19.3348 8.83036 20 8.30804V12.8571C20 14.8304 15.5223 16.4286 10 16.4286C4.47768 16.4286 0 14.8304 0 12.8571V8.30804C0.665179 8.83482 1.51786 9.25446 2.44643 9.58482C4.45089 10.2991 7.12054 10.7143 10 10.7143C12.8795 10.7143 15.5491 10.2991 17.5536 9.58482ZM0 15.4509C0.665179 15.9777 1.51786 16.3973 2.44643 16.7277C4.45089 17.442 7.12054 17.8571 10 17.8571C12.8795 17.8571 15.5491 17.442 17.5536 16.7277C18.4821 16.3973 19.3348 15.9732 20 15.4509V19.2857C20 21.2589 15.5223 22.8571 10 22.8571C4.47768 22.8571 0 21.2589 0 19.2857V15.4509Z" fill="white"/>
</svg>
