<svg width="25" height="25" viewBox="0 0 25 25" fill="none" xmlns="http://www.w3.org/2000/svg">
<path d="M8.36042 12.5C11.8073 12.5 14.6104 9.69687 14.6104 6.25C14.6104 2.80312 11.8062 0 8.36042 0C4.91458 0 2.11042 2.80312 2.11042 6.25C2.11042 9.69687 4.91354 12.5 8.36042 12.5ZM8.36042 3.125C10.0833 3.125 11.4854 4.52708 11.4854 6.25C11.4854 7.97292 10.0833 9.375 8.36042 9.375C6.6375 9.375 5.23542 7.97292 5.23542 6.25C5.23542 4.52708 6.6375 3.125 8.36042 3.125ZM10.4167 16.1458C10.4167 17.0094 9.71771 17.7083 8.85417 17.7083C5.69479 17.7083 3.125 20.2781 3.125 23.4375C3.125 24.301 2.42604 25 1.5625 25C0.698958 25 0 24.301 0 23.4375C0 18.5552 3.97188 14.5833 8.85417 14.5833C9.71771 14.5833 10.4167 15.2823 10.4167 16.1458ZM24.6281 18.5052L22.1635 20.5125L23.1833 23.6167C23.3229 24.0365 23.1812 24.499 22.8302 24.7687C22.4792 25.0385 21.9958 25.0573 21.626 24.8167L18.7573 22.949L15.9365 24.8365C15.7615 24.9542 15.5594 25.0125 15.3573 25.0125C15.1375 25.0125 14.9177 24.9427 14.7323 24.8042C14.3781 24.5396 14.2312 24.0792 14.3635 23.6573L15.3437 20.5156L12.8677 18.501C12.5344 18.2187 12.4125 17.7583 12.5635 17.3479C12.7146 16.9375 13.1042 16.6656 13.5406 16.6656H16.6667L17.7729 13.5615C17.925 13.1542 18.3146 12.8833 18.749 12.8833C19.1833 12.8833 19.5729 13.1542 19.725 13.5615L20.8312 16.6656H23.9573C24.3948 16.6656 24.7854 16.9396 24.9354 17.35C25.0854 17.7615 24.9625 18.2229 24.6281 18.5052Z" fill="white"/>
</svg>
