<svg width="25" height="25" viewBox="0 0 25 25" fill="none" xmlns="http://www.w3.org/2000/svg">
<g clip-path="url(#clip0_32_12)">
<path d="M23.5521 9.47917C23.2987 8.55413 22.9294 7.6648 22.4531 6.83229C22.6561 6.43951 22.7289 5.99232 22.6609 5.55544C22.593 5.11855 22.3878 4.71462 22.075 4.40208L20.6021 2.925C20.2851 2.62242 19.8829 2.42441 19.4498 2.35772C19.0167 2.29103 18.5735 2.35887 18.1802 2.55208C17.3441 2.07288 16.4505 1.70185 15.5208 1.44792C15.3864 1.02829 15.1225 0.662074 14.7669 0.401912C14.4112 0.141749 13.9823 0.00103689 13.5417 0L11.4583 0C11.0177 0.00103689 10.5888 0.141749 10.2331 0.401912C9.87753 0.662074 9.61356 1.02829 9.47917 1.44792C8.54952 1.70185 7.65591 2.07288 6.81979 2.55208C6.4264 2.35917 5.98333 2.29149 5.55029 2.35817C5.11724 2.42485 4.71505 2.62268 4.39792 2.925L2.925 4.39792C2.61225 4.71045 2.40704 5.11438 2.33906 5.55127C2.27108 5.98816 2.34387 6.43534 2.54687 6.82812C2.07026 7.66194 1.70101 8.55269 1.44792 9.47917C1.02829 9.61356 0.662074 9.87753 0.401912 10.2331C0.141749 10.5888 0.00103689 11.0177 0 11.4583L0 13.5417C0.00103689 13.9823 0.141749 14.4112 0.401912 14.7669C0.662074 15.1225 1.02829 15.3864 1.44792 15.5208C1.70153 16.4458 2.07076 17.3351 2.54687 18.1677C2.34387 18.5605 2.27108 19.0077 2.33906 19.4446C2.40704 19.8814 2.61225 20.2854 2.925 20.5979L4.39792 22.0708C4.71045 22.3836 5.11438 22.5888 5.55127 22.6568C5.98816 22.7247 6.43534 22.652 6.82812 22.449C7.66182 22.9268 8.55256 23.2975 9.47917 23.5521C9.61356 23.9717 9.87753 24.3379 10.2331 24.5981C10.5888 24.8582 11.0177 24.999 11.4583 25H13.5417C13.9823 24.999 14.4112 24.8582 14.7669 24.5981C15.1225 24.3379 15.3864 23.9717 15.5208 23.5521C16.446 23.2989 17.3353 22.9297 18.1677 22.4531C18.5605 22.6561 19.0077 22.7289 19.4446 22.6609C19.8814 22.593 20.2854 22.3878 20.5979 22.075L22.0708 20.6021C22.3836 20.2895 22.5888 19.8856 22.6568 19.4487C22.7247 19.0118 22.652 18.5647 22.449 18.1719C22.9268 17.3382 23.2975 16.4474 23.5521 15.5208C23.9717 15.3864 24.3379 15.1225 24.5981 14.7669C24.8582 14.4112 24.999 13.9823 25 13.5417V11.4583C24.999 11.0177 24.8582 10.5888 24.5981 10.2331C24.3379 9.87753 23.9717 9.61356 23.5521 9.47917ZM12.5 20.8333C10.8518 20.8333 9.24066 20.3446 7.87025 19.4289C6.49984 18.5132 5.43173 17.2117 4.801 15.689C4.17027 14.1663 4.00525 12.4908 4.32679 10.8742C4.64833 9.25774 5.44201 7.77288 6.60744 6.60744C7.77288 5.44201 9.25774 4.64833 10.8742 4.32679C12.4908 4.00525 14.1663 4.17027 15.689 4.801C17.2117 5.43173 18.5132 6.49984 19.4289 7.87025C20.3446 9.24066 20.8333 10.8518 20.8333 12.5C20.8309 14.7094 19.9521 16.8275 18.3898 18.3898C16.8275 19.9521 14.7094 20.8309 12.5 20.8333ZM12.5 6.77083C11.3669 6.77083 10.2592 7.10684 9.31705 7.73637C8.37489 8.3659 7.64057 9.26067 7.20694 10.3075C6.77331 11.3544 6.65986 12.5064 6.88092 13.6177C7.10198 14.7291 7.64763 15.7499 8.44887 16.5511C9.25011 17.3524 10.2709 17.898 11.3823 18.1191C12.4936 18.3401 13.6456 18.2267 14.6925 17.7931C15.7393 17.3594 16.6341 16.6251 17.2636 15.683C17.8932 14.7408 18.2292 13.6331 18.2292 12.5C18.2272 10.9811 17.623 9.52501 16.549 8.451C15.475 7.37699 14.0189 6.77276 12.5 6.77083ZM12.5 8.33333C12.809 8.33333 13.1111 8.42497 13.3681 8.59666C13.625 8.76835 13.8253 9.01238 13.9436 9.29789C14.0618 9.5834 14.0928 9.89757 14.0325 10.2007C13.9722 10.5038 13.8234 10.7822 13.6049 11.0007C13.3863 11.2192 13.1079 11.368 12.8048 11.4283C12.5017 11.4886 12.1876 11.4577 11.9021 11.3394C11.6165 11.2211 11.3725 11.0209 11.2008 10.7639C11.0291 10.507 10.9375 10.2049 10.9375 9.89583C10.9375 9.48143 11.1021 9.084 11.3951 8.79098C11.6882 8.49795 12.0856 8.33333 12.5 8.33333ZM8.33333 12.5C8.33333 12.191 8.42497 11.8889 8.59666 11.6319C8.76835 11.375 9.01238 11.1747 9.29789 11.0564C9.5834 10.9382 9.89757 10.9072 10.2007 10.9675C10.5038 11.0278 10.7822 11.1766 11.0007 11.3951C11.2192 11.6137 11.368 11.8921 11.4283 12.1952C11.4886 12.4983 11.4577 12.8124 11.3394 13.0979C11.2211 13.3835 11.0209 13.6275 10.7639 13.7992C10.507 13.9709 10.2049 14.0625 9.89583 14.0625C9.48143 14.0625 9.084 13.8979 8.79098 13.6049C8.49795 13.3118 8.33333 12.9144 8.33333 12.5ZM12.5 16.6667C12.191 16.6667 11.8889 16.575 11.6319 16.4033C11.375 16.2316 11.1747 15.9876 11.0564 15.7021C10.9382 15.4166 10.9072 15.1024 10.9675 14.7993C11.0278 14.4962 11.1766 14.2178 11.3951 13.9993C11.6137 13.7808 11.8921 13.632 12.1952 13.5717C12.4983 13.5114 12.8124 13.5423 13.0979 13.6606C13.3835 13.7789 13.6275 13.9791 13.7992 14.2361C13.9709 14.493 14.0625 14.7951 14.0625 15.1042C14.0625 15.5186 13.8979 15.916 13.6049 16.209C13.3118 16.502 12.9144 16.6667 12.5 16.6667ZM15.1042 14.0625C14.7951 14.0625 14.493 13.9709 14.2361 13.7992C13.9791 13.6275 13.7789 13.3835 13.6606 13.0979C13.5423 12.8124 13.5114 12.4983 13.5717 12.1952C13.632 11.8921 13.7808 11.6137 13.9993 11.3951C14.2178 11.1766 14.4962 11.0278 14.7993 10.9675C15.1024 10.9072 15.4166 10.9382 15.7021 11.0564C15.9876 11.1747 16.2316 11.375 16.4033 11.6319C16.575 11.8889 16.6667 12.191 16.6667 12.5C16.6667 12.9144 16.502 13.3118 16.209 13.6049C15.916 13.8979 15.5186 14.0625 15.1042 14.0625Z" fill="white"/>
</g>
<defs>
<clipPath id="clip0_32_12">
<rect width="25" height="25" fill="white"/>
</clipPath>
</defs>
</svg>
