<svg width="25" height="20" viewBox="0 0 25 20" fill="none" xmlns="http://www.w3.org/2000/svg">
<g clip-path="url(#clip0_165_410)">
<path d="M5.625 6.25C6.4538 6.25 7.24866 5.92076 7.83471 5.33471C8.42076 4.74866 8.75 3.9538 8.75 3.125C8.75 2.2962 8.42076 1.50134 7.83471 0.915291C7.24866 0.32924 6.4538 0 5.625 0C4.7962 0 4.00134 0.32924 3.41529 0.915291C2.82924 1.50134 2.5 2.2962 2.5 3.125C2.5 3.9538 2.82924 4.74866 3.41529 5.33471C4.00134 5.92076 4.7962 6.25 5.625 6.25ZM20 6.25C20.8288 6.25 21.6237 5.92076 22.2097 5.33471C22.7958 4.74866 23.125 3.9538 23.125 3.125C23.125 2.2962 22.7958 1.50134 22.2097 0.915291C21.6237 0.32924 20.8288 0 20 0C19.1712 0 18.3763 0.32924 17.7903 0.915291C17.2042 1.50134 16.875 2.2962 16.875 3.125C16.875 3.9538 17.2042 4.74866 17.7903 5.33471C18.3763 5.92076 19.1712 6.25 20 6.25ZM0 11.668C0 12.125 0.375 12.5 0.832031 12.5H9.16797C9.17578 12.5 9.18359 12.5 9.19531 12.5C8.15625 11.582 7.50391 10.2422 7.50391 8.75C7.50391 8.45313 7.53125 8.16406 7.57812 7.87891C7.04687 7.63281 6.45703 7.5 5.83594 7.5H4.16797C1.86719 7.5 0 9.36719 0 11.668ZM12.5 12.5C13.4375 12.5 14.293 12.1563 14.9492 11.5898C15.0469 11.4453 15.1523 11.3047 15.2617 11.1719C15.3672 11.043 15.4844 10.9336 15.6133 10.8477C16.0156 10.2461 16.25 9.52734 16.25 8.75C16.25 6.67969 14.5703 5 12.5 5C10.4297 5 8.75 6.67969 8.75 8.75C8.75 10.8203 10.4297 12.5 12.5 12.5ZM15.0547 14.8516C14.6523 14.6211 14.3477 14.2188 14.2422 13.75H10.207C7.33203 13.75 5 16.082 5 18.957C5 19.5312 5.46484 20 6.04297 20H17.7813C17.6992 19.7969 17.6562 19.5742 17.6562 19.3594V19.2422C17.6055 19.2148 17.5508 19.1836 17.5 19.1523L17.3984 19.2109C16.7422 19.5898 15.8164 19.5234 15.2617 18.832C15.0859 18.6133 14.9258 18.3828 14.7773 18.1445L14.7734 18.1367L14.7695 18.1289L14.6758 17.9688L14.6719 17.9609L14.668 17.9531C14.5352 17.7109 14.418 17.4609 14.3164 17.1992C13.9961 16.3711 14.4023 15.5352 15.0586 15.1562L15.1641 15.0977C15.1641 15.0664 15.1641 15.0391 15.1641 15.0078C15.1641 14.9766 15.1641 14.9492 15.1641 14.918L15.0586 14.8594L15.0547 14.8516ZM20.832 7.5H19.168C18.5469 7.5 17.957 7.63672 17.4258 7.87891C17.4766 8.16016 17.5 8.45313 17.5 8.75C17.5 9.42969 17.3633 10.0742 17.1211 10.6641C17.2187 10.6992 17.3125 10.7422 17.3984 10.793L17.5 10.8516C17.5508 10.8203 17.6016 10.7891 17.6562 10.7617V10.6445C17.6562 9.88672 18.1758 9.11719 19.0547 8.98047C19.3633 8.93359 19.6797 8.90625 20 8.90625C20.3203 8.90625 20.6367 8.92969 20.9453 8.98047C21.8242 9.11719 22.3438 9.88672 22.3438 10.6445V10.7617C22.3945 10.7891 22.4492 10.8203 22.5 10.8516L22.6016 10.793C23.2578 10.4141 24.1836 10.4805 24.7383 11.1719C24.8281 11.2812 24.9141 11.3984 24.9961 11.5117C24.9141 9.28125 23.082 7.5 20.832 7.5ZM24.3984 13.9023C24.6445 13.7617 24.7695 13.4687 24.6641 13.1992C24.582 12.9844 24.4844 12.7773 24.375 12.5781L24.2852 12.4219C24.1641 12.2227 24.0313 12.0352 23.8867 11.8555C23.707 11.6328 23.3906 11.5937 23.1445 11.7383L23.0312 11.8047C22.6719 12.0117 22.2344 11.9609 21.875 11.7539C21.5156 11.5469 21.2461 11.1875 21.2461 10.7734V10.6406C21.2461 10.3555 21.0547 10.1016 20.7734 10.0586C20.5195 10.0195 20.2617 10 19.9961 10C19.7305 10 19.4727 10.0195 19.2188 10.0586C18.9375 10.1016 18.7461 10.3555 18.7461 10.6406V10.7734C18.7461 11.1875 18.4766 11.5469 18.1172 11.7539C17.7578 11.9609 17.3203 12.0117 16.9609 11.8047L16.8477 11.7383C16.6016 11.5977 16.2852 11.6367 16.1055 11.8555C15.9609 12.0352 15.8281 12.2266 15.707 12.4258L15.6172 12.5781C15.5078 12.7773 15.4102 12.9844 15.3281 13.1992C15.2266 13.4648 15.3477 13.7578 15.5938 13.8984L15.707 13.9648C16.0664 14.1719 16.2422 14.582 16.2422 14.9961C16.2422 15.4102 16.0664 15.8203 15.707 16.0273L15.5898 16.0938C15.3438 16.2344 15.2187 16.5273 15.3242 16.793C15.4062 17.0078 15.5039 17.2109 15.6133 17.4102L15.707 17.5703C15.8242 17.7695 15.957 17.957 16.1016 18.1367C16.2813 18.3594 16.5977 18.3984 16.8438 18.2539L16.957 18.1875C17.3164 17.9805 17.7539 18.0312 18.1133 18.2383C18.4727 18.4453 18.7422 18.8047 18.7422 19.2188V19.3516C18.7422 19.6367 18.9336 19.8906 19.2148 19.9336C19.4687 19.9727 19.7266 19.9922 19.9922 19.9922C20.2578 19.9922 20.5156 19.9727 20.7695 19.9336C21.0508 19.8906 21.2422 19.6367 21.2422 19.3516V19.2188C21.2422 18.8047 21.5117 18.4453 21.8711 18.2383C22.2305 18.0312 22.668 17.9805 23.0273 18.1875L23.1406 18.2539C23.3867 18.3945 23.7031 18.3555 23.8828 18.1367C24.0273 17.957 24.1602 17.7695 24.2773 17.5703L24.3711 17.4063C24.4805 17.207 24.5781 17.0039 24.6602 16.7891C24.7617 16.5234 24.6406 16.2305 24.3945 16.0898L24.2773 16.0234C23.918 15.8164 23.7422 15.4062 23.7422 14.9922C23.7422 14.5781 23.918 14.168 24.2773 13.9609L24.3945 13.8945L24.3984 13.9023ZM18.4375 15C18.4375 14.5856 18.6021 14.1882 18.8951 13.8951C19.1882 13.6021 19.5856 13.4375 20 13.4375C20.4144 13.4375 20.8118 13.6021 21.1049 13.8951C21.3979 14.1882 21.5625 14.5856 21.5625 15C21.5625 15.4144 21.3979 15.8118 21.1049 16.1049C20.8118 16.3979 20.4144 16.5625 20 16.5625C19.5856 16.5625 19.1882 16.3979 18.8951 16.1049C18.6021 15.8118 18.4375 15.4144 18.4375 15Z" fill="white"/>
</g>
<defs>
<clipPath id="clip0_165_410">
<rect width="25" height="20" fill="white"/>
</clipPath>
</defs>
</svg>
