<svg width="23" height="23" viewBox="0 0 23 23" fill="none" xmlns="http://www.w3.org/2000/svg">
<path d="M10.4798 0.225693C11.1265 -0.0737864 11.873 -0.0737864 12.5197 0.225693L22.0076 4.60937C22.3765 4.77864 22.6109 5.14757 22.6109 5.55555C22.6109 5.96354 22.3765 6.33246 22.0076 6.50173L12.5197 10.8854C11.873 11.1849 11.1265 11.1849 10.4798 10.8854L0.991971 6.50173C0.623047 6.32812 0.388672 5.9592 0.388672 5.55555C0.388672 5.15191 0.623047 4.77864 0.991971 4.60937L10.4798 0.225693ZM19.6986 9.09722L22.0076 10.1649C22.3765 10.3342 22.6109 10.7031 22.6109 11.1111C22.6109 11.5191 22.3765 11.888 22.0076 12.0573L12.5197 16.441C11.873 16.7404 11.1265 16.7404 10.4798 16.441L0.991971 12.0573C0.623047 11.8837 0.388672 11.5148 0.388672 11.1111C0.388672 10.7075 0.623047 10.3342 0.991971 10.1649L3.301 9.09722L9.89822 12.1441C10.9138 12.6128 12.0857 12.6128 13.1013 12.1441L19.6986 9.09722ZM13.1013 17.6997L19.6986 14.6528L22.0076 15.7205C22.3765 15.8898 22.6109 16.2587 22.6109 16.6667C22.6109 17.0747 22.3765 17.4436 22.0076 17.6128L12.5197 21.9965C11.873 22.296 11.1265 22.296 10.4798 21.9965L0.991971 17.6128C0.623047 17.4392 0.388672 17.0703 0.388672 16.6667C0.388672 16.263 0.623047 15.8898 0.991971 15.7205L3.301 14.6528L9.89822 17.6997C10.9138 18.1684 12.0857 18.1684 13.1013 17.6997Z" fill="white"/>
</svg>
