<svg width="25" height="25" viewBox="0 0 25 25" fill="none" xmlns="http://www.w3.org/2000/svg">
<path d="M3.125 0C2.26074 0 1.5625 0.698242 1.5625 1.5625V4.6875C1.5625 5.55176 2.26074 6.25 3.125 6.25H7.03125V7.8125H4.24805C2.70508 7.8125 1.3916 8.94043 1.15723 10.4687L0.0537109 17.7783C0.0195313 18.0078 0 18.2422 0 18.4766V21.875C0 23.5986 1.40137 25 3.125 25H21.875C23.5986 25 25 23.5986 25 21.875V18.4766C25 18.2422 24.9805 18.0078 24.9463 17.7734L23.8379 10.4687C23.6084 8.94043 22.2949 7.8125 20.752 7.8125H10.1562V6.25H14.0625C14.9268 6.25 15.625 5.55176 15.625 4.6875V1.5625C15.625 0.698242 14.9268 0 14.0625 0H3.125ZM4.6875 2.34375H12.5C12.9297 2.34375 13.2812 2.69531 13.2812 3.125C13.2812 3.55469 12.9297 3.90625 12.5 3.90625H4.6875C4.25781 3.90625 3.90625 3.55469 3.90625 3.125C3.90625 2.69531 4.25781 2.34375 4.6875 2.34375ZM3.125 21.0938C3.125 20.6641 3.47656 20.3125 3.90625 20.3125H21.0938C21.5234 20.3125 21.875 20.6641 21.875 21.0938C21.875 21.5234 21.5234 21.875 21.0938 21.875H3.90625C3.47656 21.875 3.125 21.5234 3.125 21.0938ZM5.46875 12.8906C5.15795 12.8906 4.85988 12.7672 4.64011 12.5474C4.42034 12.3276 4.29688 12.0296 4.29688 11.7188C4.29688 11.4079 4.42034 11.1099 4.64011 10.8901C4.85988 10.6703 5.15795 10.5469 5.46875 10.5469C5.77955 10.5469 6.07762 10.6703 6.29739 10.8901C6.51716 11.1099 6.64062 11.4079 6.64062 11.7188C6.64062 12.0296 6.51716 12.3276 6.29739 12.5474C6.07762 12.7672 5.77955 12.8906 5.46875 12.8906ZM11.3281 11.7188C11.3281 12.0296 11.2047 12.3276 10.9849 12.5474C10.7651 12.7672 10.4671 12.8906 10.1562 12.8906C9.84545 12.8906 9.54738 12.7672 9.32761 12.5474C9.10784 12.3276 8.98438 12.0296 8.98438 11.7188C8.98438 11.4079 9.10784 11.1099 9.32761 10.8901C9.54738 10.6703 9.84545 10.5469 10.1562 10.5469C10.4671 10.5469 10.7651 10.6703 10.9849 10.8901C11.2047 11.1099 11.3281 11.4079 11.3281 11.7188ZM7.8125 16.7969C7.5017 16.7969 7.20363 16.6734 6.98386 16.4536C6.76409 16.2339 6.64063 15.9358 6.64062 15.625C6.64062 15.3142 6.76409 15.0161 6.98386 14.7964C7.20363 14.5766 7.5017 14.4531 7.8125 14.4531C8.1233 14.4531 8.42137 14.5766 8.64114 14.7964C8.86091 15.0161 8.98437 15.3142 8.98438 15.625C8.98437 15.9358 8.86091 16.2339 8.64114 16.4536C8.42137 16.6734 8.1233 16.7969 7.8125 16.7969ZM16.0156 11.7188C16.0156 12.0296 15.8922 12.3276 15.6724 12.5474C15.4526 12.7672 15.1546 12.8906 14.8438 12.8906C14.5329 12.8906 14.2349 12.7672 14.0151 12.5474C13.7953 12.3276 13.6719 12.0296 13.6719 11.7188C13.6719 11.4079 13.7953 11.1099 14.0151 10.8901C14.2349 10.6703 14.5329 10.5469 14.8438 10.5469C15.1546 10.5469 15.4526 10.6703 15.6724 10.8901C15.8922 11.1099 16.0156 11.4079 16.0156 11.7188ZM12.5 16.7969C12.1892 16.7969 11.8911 16.6734 11.6714 16.4536C11.4516 16.2339 11.3281 15.9358 11.3281 15.625C11.3281 15.3142 11.4516 15.0161 11.6714 14.7964C11.8911 14.5766 12.1892 14.4531 12.5 14.4531C12.8108 14.4531 13.1089 14.5766 13.3286 14.7964C13.5484 15.0161 13.6719 15.3142 13.6719 15.625C13.6719 15.9358 13.5484 16.2339 13.3286 16.4536C13.1089 16.6734 12.8108 16.7969 12.5 16.7969ZM20.7031 11.7188C20.7031 11.8726 20.6728 12.025 20.6139 12.1672C20.555 12.3094 20.4687 12.4386 20.3599 12.5474C20.2511 12.6562 20.1219 12.7425 19.9797 12.8014C19.8375 12.8603 19.6851 12.8906 19.5312 12.8906C19.3774 12.8906 19.225 12.8603 19.0828 12.8014C18.9406 12.7425 18.8114 12.6562 18.7026 12.5474C18.5938 12.4386 18.5075 12.3094 18.4486 12.1672C18.3897 12.025 18.3594 11.8726 18.3594 11.7188C18.3594 11.5649 18.3897 11.4125 18.4486 11.2703C18.5075 11.1281 18.5938 10.9989 18.7026 10.8901C18.8114 10.7813 18.9406 10.695 19.0828 10.6361C19.225 10.5772 19.3774 10.5469 19.5312 10.5469C19.6851 10.5469 19.8375 10.5772 19.9797 10.6361C20.1219 10.695 20.2511 10.7813 20.3599 10.8901C20.4687 10.9989 20.555 11.1281 20.6139 11.2703C20.6728 11.4125 20.7031 11.5649 20.7031 11.7188ZM17.1875 16.7969C16.8767 16.7969 16.5786 16.6734 16.3589 16.4536C16.1391 16.2339 16.0156 15.9358 16.0156 15.625C16.0156 15.3142 16.1391 15.0161 16.3589 14.7964C16.5786 14.5766 16.8767 14.4531 17.1875 14.4531C17.4983 14.4531 17.7964 14.5766 18.0161 14.7964C18.2359 15.0161 18.3594 15.3142 18.3594 15.625C18.3594 15.9358 18.2359 16.2339 18.0161 16.4536C17.7964 16.6734 17.4983 16.7969 17.1875 16.7969Z" fill="white"/>
</svg>
