<svg width="25" height="20" viewBox="0 0 25 20" fill="none" xmlns="http://www.w3.org/2000/svg">
<path d="M9.02778 2.47222C9.02778 1.32205 9.96094 0.388885 11.1111 0.388885H13.8889C15.0391 0.388885 15.9722 1.32205 15.9722 2.47222V5.25C15.9722 6.40017 15.0391 7.33333 13.8889 7.33333H13.5417V9.06944H20.1389C21.48 9.06944 22.5694 10.1588 22.5694 11.5V12.8889H22.9167C24.0668 12.8889 25 13.822 25 14.9722V17.75C25 18.9002 24.0668 19.8333 22.9167 19.8333H20.1389C18.9887 19.8333 18.0556 18.9002 18.0556 17.75V14.9722C18.0556 13.822 18.9887 12.8889 20.1389 12.8889H20.4861V11.5C20.4861 11.309 20.3299 11.1528 20.1389 11.1528H13.5417V12.8889H13.8889C15.0391 12.8889 15.9722 13.822 15.9722 14.9722V17.75C15.9722 18.9002 15.0391 19.8333 13.8889 19.8333H11.1111C9.96094 19.8333 9.02778 18.9002 9.02778 17.75V14.9722C9.02778 13.822 9.96094 12.8889 11.1111 12.8889H11.4583V11.1528H4.86111C4.67014 11.1528 4.51389 11.309 4.51389 11.5V12.8889H4.86111C6.01128 12.8889 6.94444 13.822 6.94444 14.9722V17.75C6.94444 18.9002 6.01128 19.8333 4.86111 19.8333H2.08333C0.93316 19.8333 0 18.9002 0 17.75V14.9722C0 13.822 0.93316 12.8889 2.08333 12.8889H2.43056V11.5C2.43056 10.1588 3.51997 9.06944 4.86111 9.06944H11.4583V7.33333H11.1111C9.96094 7.33333 9.02778 6.40017 9.02778 5.25V2.47222Z" fill="white"/>
</svg>
