<svg width="25" height="25" viewBox="0 0 25 25" fill="none" xmlns="http://www.w3.org/2000/svg">
<g clip-path="url(#clip0_32_14)">
<path d="M23.6791 9.38854C22.8791 8.66042 21.8406 8.29062 20.7656 8.33854C19.6864 8.38854 18.6916 8.85729 17.9635 9.65625L15.4239 12.4469C14.751 11.8333 13.8541 11.4583 12.8729 11.4583H8.33431V10.4167H8.72598C10.2333 10.4167 11.4593 9.19062 11.4593 7.68333C11.4593 6.34167 10.4979 5.20729 9.17493 4.9875L5.75306 4.41667C5.43848 4.36458 5.21035 4.09479 5.21035 3.775C5.21035 3.41667 5.50202 3.125 5.86035 3.125H8.33535C8.91035 3.125 9.37702 3.59271 9.37702 4.16667H11.4604C11.4604 2.44375 10.0583 1.04167 8.33535 1.04167V0H6.25202V1.04167H5.86035C4.35306 1.04167 3.12702 2.26771 3.12702 3.775C3.12702 5.11667 4.08848 6.25104 5.41139 6.47083L8.83327 7.04167C9.14785 7.09375 9.37598 7.36354 9.37598 7.68333C9.37598 8.04167 9.08431 8.33333 8.72598 8.33333H6.25098C5.67598 8.33333 5.20931 7.86562 5.20931 7.29167H3.12598C3.12598 9.01458 4.52806 10.4167 6.25098 10.4167V11.4583H3.64681C1.63639 11.4583 0.000976562 13.0937 0.000976562 15.1042V21.3542C0.000976562 23.3646 1.63639 25 3.64681 25H15.2937L23.9749 15.0708C25.4437 13.424 25.3114 10.876 23.6812 9.38854H23.6791ZM21.6312 13.0021L13.8739 21.875H3.64577C3.35931 21.875 3.12493 21.6417 3.12493 21.3542V15.1042C3.12493 14.8167 3.35931 14.5833 3.64577 14.5833H12.8718C13.2406 14.5833 13.5416 14.8833 13.5416 15.2521C13.5416 15.5823 13.2947 15.8677 12.9676 15.9146L7.5916 16.6823L8.03327 19.776L13.4104 19.0083C15.0958 18.7677 16.4051 17.4135 16.6322 15.7635L20.2749 11.7604C20.4406 11.5781 20.6666 11.4719 20.9124 11.4604C21.1531 11.4479 21.3947 11.5344 21.5749 11.699C21.9458 12.0375 21.976 12.6167 21.6322 13.0031L21.6312 13.0021ZM16.6447 5.74583H13.5416V2.62083H16.6447V0L20.4468 3.31562C20.9614 3.77708 20.9614 4.58333 20.4468 5.04479L16.6447 8.33333V5.74583Z" fill="white"/>
</g>
<defs>
<clipPath id="clip0_32_14">
<rect width="25" height="25" fill="white"/>
</clipPath>
</defs>
</svg>
