<svg width="25" height="23" viewBox="0 0 25 23" fill="none" xmlns="http://www.w3.org/2000/svg">
<g clip-path="url(#clip0_156_190)">
<path d="M0 2.77778C0 1.24566 1.24566 0 2.77778 0H9.72222V5.55555C9.72222 6.32378 10.3429 6.94444 11.1111 6.94444H16.6667V8.98437L12.6389 10.5946C11.7144 10.9635 11.1111 11.8576 11.1111 12.8516C11.1111 15.3082 11.9314 19.2752 15.1997 21.8924C14.809 22.1007 14.362 22.2222 13.8889 22.2222H2.77778C1.24566 22.2222 0 20.9766 0 19.4444V2.77778ZM16.6667 5.55555H11.1111V0L16.6667 5.55555ZM18.3637 9.79601C18.6111 9.69618 18.8889 9.69618 19.1363 9.79601L24.3446 11.8793C24.7396 12.0399 25 12.4219 25 12.8472C25 15.5946 23.8759 20.1736 19.1493 22.1441C18.8932 22.2526 18.6024 22.2526 18.3464 22.1441C13.6241 20.1736 12.5 15.5946 12.5 12.8472C12.5 12.4219 12.7604 12.0399 13.1554 11.8793L18.3637 9.79601ZM22.8906 13.5417L18.75 11.8837V20.0391C21.7101 18.6068 22.7214 15.7422 22.8906 13.5417Z" fill="white"/>
</g>
<defs>
<clipPath id="clip0_156_190">
<rect width="25" height="22.2222" fill="white"/>
</clipPath>
</defs>
</svg>
