<svg width="25" height="25" viewBox="0 0 25 25" fill="none" xmlns="http://www.w3.org/2000/svg">
<path d="M16.2451 11.0896L10.6638 5.50937C11.4607 2.34583 14.3159 0 17.7273 0C18.7867 0 19.7909 0.23125 20.6992 0.6375L17.4492 3.8875C16.4326 4.90417 16.4326 6.55312 17.4492 7.57083C18.4659 8.5875 20.1148 8.5875 21.1326 7.57083L24.3826 4.32083C24.7888 5.22917 25.0201 6.23333 25.0201 7.29271C25.0201 10.1094 23.4076 12.5281 21.069 13.7406L17.3388 9.99896L16.2471 11.0906L16.2451 11.0896ZM0.899219 19.7771C-0.29974 20.976 -0.29974 22.9198 0.899219 24.1187C2.09818 25.3177 4.04193 25.3177 5.24089 24.1187L12.1013 17.2583L7.75859 12.9167L0.899219 19.7771ZM17.3367 12.9437L16.2451 14.0354L8.33255 6.12292V3.15417L2.8638 0L0.00026046 2.86354L3.15339 8.33333H6.12318L14.0357 16.2458L13.0003 17.2812L19.8211 24.1021C21.019 25.3 22.9596 25.3 24.1576 24.1021C25.3555 22.9042 25.2044 21.1146 24.1576 19.7656L17.3367 12.9448V12.9437Z" fill="white"/>
</svg>
