<svg width="25" height="25" viewBox="0 0 25 25" fill="none" xmlns="http://www.w3.org/2000/svg">
<path d="M19.2708 0H5.72917C2.57292 0 0 2.57292 0 5.72917V19.2708C0 22.4271 2.57292 25 5.72917 25H19.2708C22.4271 25 25 22.4271 25 19.2708V5.72917C25 2.57292 22.4271 0 19.2708 0ZM21.875 19.2708C21.875 20.7083 20.7083 21.875 19.2708 21.875H5.72917C4.29167 21.875 3.125 20.7083 3.125 19.2708V5.72917C3.125 4.29167 4.29167 3.125 5.72917 3.125H19.2708C20.7083 3.125 21.875 4.29167 21.875 5.72917V19.2708ZM5.20833 7.8125C5.20833 6.375 6.375 5.20833 7.8125 5.20833C9.25 5.20833 10.4167 6.375 10.4167 7.8125C10.4167 9.25 9.25 10.4167 7.8125 10.4167C6.375 10.4167 5.20833 9.25 5.20833 7.8125ZM14.5833 9.375V6.25C14.5833 5.67708 15.0521 5.20833 15.625 5.20833H18.75C19.3229 5.20833 19.7917 5.67708 19.7917 6.25V9.375C19.7917 9.94792 19.3229 10.4167 18.75 10.4167H15.625C15.0521 10.4167 14.5833 9.94792 14.5833 9.375ZM10.5937 15.9792C11 16.3854 11 17.0417 10.5937 17.4479L8.51042 19.5312C8.10417 19.9375 7.44792 19.9375 7.04167 19.5312L4.95833 17.4479C4.55208 17.0417 4.55208 16.3854 4.95833 15.9792L7.04167 13.8958C7.44792 13.4896 8.10417 13.4896 8.51042 13.8958L10.5937 15.9792ZM20.2604 18.2604C20.6771 18.9271 20.1979 19.7917 19.4167 19.7917H14.9583C14.1771 19.7917 13.6979 18.9271 14.1146 18.2604L16.3437 14.6979C16.7396 14.0729 17.6458 14.0729 18.0417 14.6979L20.2708 18.2604H20.2604Z" fill="white"/>
</svg>
