<svg width="27" height="35" viewBox="0 0 27 35" fill="none" xmlns="http://www.w3.org/2000/svg">
<path d="M26.625 28.4375V35H22.25V28.4375C22.25 26.4279 20.6152 24.7917 18.6042 24.7917H16.4312L14.6419 27.475L16.4152 35H10.5819L12.3552 27.475L10.5658 24.7917H8.3929C6.38332 24.7917 4.74707 26.4279 4.74707 28.4375V35H0.37207V28.4375C0.37207 24.0144 3.96978 20.4167 8.3929 20.4167H18.6012C23.0229 20.4167 26.6221 24.0144 26.6221 28.4375H26.625ZM4.74999 8.75C4.74999 3.92438 8.67436 0 13.5 0C18.3256 0 22.25 3.92438 22.25 8.75C22.25 13.5756 18.3256 17.5 13.5 17.5C8.67436 17.5 4.74999 13.5756 4.74999 8.75ZM9.12499 8.75C9.12499 11.1621 11.0879 13.125 13.5 13.125C15.9121 13.125 17.875 11.1621 17.875 8.75C17.875 6.33792 15.9121 4.375 13.5 4.375C11.0879 4.375 9.12499 6.33792 9.12499 8.75Z" fill="white"/>
</svg>
