<svg width="20" height="27" viewBox="0 0 20 27" fill="none" xmlns="http://www.w3.org/2000/svg">
<g clip-path="url(#clip0_163_406)">
<path d="M3.33333 2.5C2.875 2.5 2.5 2.875 2.5 3.33333V23.3333C2.5 23.7917 2.875 24.1667 3.33333 24.1667H7.5V20.8333C7.5 19.4531 8.61979 18.3333 10 18.3333C11.3802 18.3333 12.5 19.4531 12.5 20.8333V24.1667H16.6667C17.125 24.1667 17.5 23.7917 17.5 23.3333V3.33333C17.5 2.875 17.125 2.5 16.6667 2.5H3.33333ZM0 3.33333C0 1.49479 1.49479 0 3.33333 0H16.6667C18.5052 0 20 1.49479 20 3.33333V23.3333C20 25.1719 18.5052 26.6667 16.6667 26.6667H3.33333C1.49479 26.6667 0 25.1719 0 23.3333V3.33333ZM4.58333 5.41667C4.58333 4.95833 4.95833 4.58333 5.41667 4.58333H7.91667C8.375 4.58333 8.75 4.95833 8.75 5.41667V7.91667C8.75 8.375 8.375 8.75 7.91667 8.75H5.41667C4.95833 8.75 4.58333 8.375 4.58333 7.91667V5.41667ZM12.0833 4.58333H14.5833C15.0417 4.58333 15.4167 4.95833 15.4167 5.41667V7.91667C15.4167 8.375 15.0417 8.75 14.5833 8.75H12.0833C11.625 8.75 11.25 8.375 11.25 7.91667V5.41667C11.25 4.95833 11.625 4.58333 12.0833 4.58333ZM4.58333 12.0833C4.58333 11.625 4.95833 11.25 5.41667 11.25H7.91667C8.375 11.25 8.75 11.625 8.75 12.0833V14.5833C8.75 15.0417 8.375 15.4167 7.91667 15.4167H5.41667C4.95833 15.4167 4.58333 15.0417 4.58333 14.5833V12.0833ZM12.0833 11.25H14.5833C15.0417 11.25 15.4167 11.625 15.4167 12.0833V14.5833C15.4167 15.0417 15.0417 15.4167 14.5833 15.4167H12.0833C11.625 15.4167 11.25 15.0417 11.25 14.5833V12.0833C11.25 11.625 11.625 11.25 12.0833 11.25Z" fill="white"/>
</g>
<defs>
<clipPath id="clip0_163_406">
<rect width="20" height="26.6667" fill="white"/>
</clipPath>
</defs>
</svg>
