<svg width="25" height="25" viewBox="0 0 25 25" fill="none" xmlns="http://www.w3.org/2000/svg">
<g clip-path="url(#clip0_32_10)">
<path d="M3.125 21.875H12.5V25H0V3.64583C0 1.63542 1.63542 0 3.64583 0H15.1042C17.1146 0 18.75 1.63542 18.75 3.64583V10.5219C17.4729 10.7823 16.3771 11.5219 15.625 12.5323V3.64583C15.625 3.35937 15.3906 3.125 15.1042 3.125H3.64583C3.35937 3.125 3.125 3.35937 3.125 3.64583V21.875ZM5.20833 18.75H8.33333V15.625H5.20833V18.75ZM10.4167 18.75H13.5417V15.625H10.4167V18.75ZM8.33333 10.4167H5.20833V13.5417H8.33333V10.4167ZM10.4167 13.5417H13.5417V10.4167H10.4167V13.5417ZM8.33333 5.20833H5.20833V8.33333H8.33333V5.20833ZM10.4167 8.33333H13.5417V5.20833H10.4167V8.33333ZM21.875 19.7917H17.7083C15.9854 19.7917 14.5833 21.1937 14.5833 22.9167V25H25V22.9167C25 21.1937 23.5979 19.7917 21.875 19.7917ZM16.6667 15.625C16.6667 17.3479 18.0687 18.75 19.7917 18.75C21.5146 18.75 22.9167 17.3479 22.9167 15.625C22.9167 13.9021 21.5146 12.5 19.7917 12.5C18.0687 12.5 16.6667 13.9021 16.6667 15.625Z" fill="white"/>
</g>
<defs>
<clipPath id="clip0_32_10">
<rect width="25" height="25" fill="white"/>
</clipPath>
</defs>
</svg>
